/* XPM */
static char * wall3_xpm[] = {
"64 64 2 1",
" 	c #DDC6C6",
".	c #DB7575",
"    ............    ............    ............    ............",
"    ............    ............    ............    ............",
"    ............    ............    ............    ............",
"    ............    ............    ............    ............",
"                                                                ",
"                                                                ",
"                                                                ",
"                                                                ",
"........    ............    ............    ............    ....",
"........    ............    ............    ............    ....",
"........    ............    ............    ............    ....",
"........    ............    ............    ............    ....",
"........    ............    ............    ............    ....",
"........    ............    ............    ............    ....",
"........    ............    ............    ............    ....",
"........    ............    ............    ............    ....",
"                                                                ",
"                                                                ",
"                                                                ",
"                                                                ",
"    ............    ............    ............    ............",
"    ............    ............    ............    ............",
"    ............    ............    ............    ............",
"    ............    ............    ............    ............",
"    ............    ............    ............    ............",
"    ............    ............    ............    ............",
"    ............    ............    ............    ............",
"    ............    ............    ............    ............",
"                                                                ",
"                                                                ",
"                                                                ",
"                                                                ",
"........    ............    ............    ............    ....",
"........    ............    ............    ............    ....",
"........    ............    ............    ............    ....",
"........    ............    ............    ............    ....",
"........    ............    ............    ............    ....",
"........    ............    ............    ............    ....",
"........    ............    ............    ............    ....",
"........    ............    ............    ............    ....",
"                                                                ",
"                                                                ",
"                                                                ",
"                                                                ",
"    ............    ............    ............    ............",
"    ............    ............    ............    ............",
"    ............    ............    ............    ............",
"    ............    ............    ............    ............",
"    ............    ............    ............    ............",
"    ............    ............    ............    ............",
"    ............    ............    ............    ............",
"    ............    ............    ............    ............",
"                                                                ",
"                                                                ",
"                                                                ",
"                                                                ",
"........    ............    ............    ............    ....",
"........    ............    ............    ............    ....",
"........    ............    ............    ............    ....",
"........    ............    ............    ............    ....",
"........    ............    ............    ............    ....",
"........    ............    ............    ............    ....",
"........    ............    ............    ............    ....",
"........    ............    ............    ............    ...."};
