/* XPM */
static char * wall1_xpm[] = {
"64 64 2 1",
" 	c #928C8C",
".	c #332727",
"    ............    ............    ............    ............",
"    ............    ............    ............    ............",
"    ............    ............    ............    ............",
"    ............    ............    ............    ............",
"                                                                ",
"                                                                ",
"                                                                ",
"                                                                ",
"........    ............    ............    ............    ....",
"........    ............    ............    ............    ....",
"........    ............    ............    ............    ....",
"........    ............    ............    ............    ....",
"........    ............    ............    ............    ....",
"........    ............    ............    ............    ....",
"........    ............    ............    ............    ....",
"........    ............    ............    ............    ....",
"                                                                ",
"                                                                ",
"                                                                ",
"                                                                ",
"    ............    ............    ............    ............",
"    ............    ............    ............    ............",
"    ............    ............    ............    ............",
"    ............    ............    ............    ............",
"    ............    ............    ............    ............",
"    ............    ............    ............    ............",
"    ............    ............    ............    ............",
"    ............    ............    ............    ............",
"                                                                ",
"                                                                ",
"                                                                ",
"                                                                ",
"........    ............    ............    ............    ....",
"........    ............    ............    ............    ....",
"........    ............    ............    ............    ....",
"........    ............    ............    ............    ....",
"........    ............    ............    ............    ....",
"........    ............    ............    ............    ....",
"........    ............    ............    ............    ....",
"........    ............    ............    ............    ....",
"                                                                ",
"                                                                ",
"                                                                ",
"                                                                ",
"    ............    ............    ............    ............",
"    ............    ............    ............    ............",
"    ............    ............    ............    ............",
"    ............    ............    ............    ............",
"    ............    ............    ............    ............",
"    ............    ............    ............    ............",
"    ............    ............    ............    ............",
"    ............    ............    ............    ............",
"                                                                ",
"                                                                ",
"                                                                ",
"                                                                ",
"........    ............    ............    ............    ....",
"........    ............    ............    ............    ....",
"........    ............    ............    ............    ....",
"........    ............    ............    ............    ....",
"........    ............    ............    ............    ....",
"........    ............    ............    ............    ....",
"........    ............    ............    ............    ....",
"........    ............    ............    ............    ...."};
