/* XPM */
static char * wall4_xpm[] = {
"64 64 6 1",
" 	c #2147CA",
".	c #253F97",
"+	c #7285C7",
"@	c #8495CF",
"#	c #B2BEE5",
"$	c #E6EAF5",
"                ........++++@@@@########........                ",
"                ........++++@@@@########........                ",
"                ........++++@@@@########........                ",
"                ........++++@@@@########........                ",
"                ....++++++++@@@@####$$$$$$$$....                ",
"                ....++++++++@@@@####$$$$$$$$....                ",
"                ....++++++++@@@@####$$$$$$$$....                ",
"                ....++++++++@@@@####$$$$$$$$....                ",
"............    ....++++++++@@@@####$$$$$$$$....    ............",
"............    ....++++++++@@@@####$$$$$$$$....    ............",
"............    ....++++++++@@@@####$$$$$$$$....    ............",
"............    ....++++++++@@@@####$$$$$$$$....    ............",
"########............++++++++@@@@############............++++@@@@",
"########............++++++++@@@@############............++++@@@@",
"########............++++++++@@@@############............++++@@@@",
"########............++++++++@@@@############............++++@@@@",
"####$$$$$$$$........++++++++@@@@@@@@@@@@@@@@........++++++++@@@@",
"####$$$$$$$$........++++++++@@@@@@@@@@@@@@@@........++++++++@@@@",
"####$$$$$$$$........++++++++@@@@@@@@@@@@@@@@........++++++++@@@@",
"####$$$$$$$$........++++++++@@@@@@@@@@@@@@@@........++++++++@@@@",
"####$$$$$$$$............++++++++++++++++............++++++++@@@@",
"####$$$$$$$$............++++++++++++++++............++++++++@@@@",
"####$$$$$$$$............++++++++++++++++............++++++++@@@@",
"####$$$$$$$$............++++++++++++++++............++++++++@@@@",
"############....    ........................    ....++++++++@@@@",
"############....    ........................    ....++++++++@@@@",
"############....    ........................    ....++++++++@@@@",
"############....    ........................    ....++++++++@@@@",
"@@@@@@@@@@@@....                                ....++++++++@@@@",
"@@@@@@@@@@@@....                                ....++++++++@@@@",
"@@@@@@@@@@@@....                                ....++++++++@@@@",
"@@@@@@@@@@@@....                                ....++++++++@@@@",
"++++++++........                                ........++++++++",
"++++++++........                                ........++++++++",
"++++++++........                                ........++++++++",
"++++++++........                                ........++++++++",
"............        ........................        ............",
"............        ........................        ............",
"............        ........................        ............",
"............        ........................        ............",
"                ........++++@@@@########........                ",
"                ........++++@@@@########........                ",
"                ........++++@@@@########........                ",
"                ........++++@@@@########........                ",
"                ....++++++++@@@@####$$$$$$$$....                ",
"                ....++++++++@@@@####$$$$$$$$....                ",
"                ....++++++++@@@@####$$$$$$$$....                ",
"                ....++++++++@@@@####$$$$$$$$....                ",
"............    ....++++++++@@@@####$$$$$$$$....    ............",
"............    ....++++++++@@@@####$$$$$$$$....    ............",
"............    ....++++++++@@@@####$$$$$$$$....    ............",
"............    ....++++++++@@@@####$$$$$$$$....    ............",
"########............++++++++@@@@############............++++@@@@",
"########............++++++++@@@@############............++++@@@@",
"########............++++++++@@@@############............++++@@@@",
"########............++++++++@@@@############............++++@@@@",
"####$$$$$$$$........++++++++@@@@@@@@@@@@@@@@........++++++++@@@@",
"####$$$$$$$$........++++++++@@@@@@@@@@@@@@@@........++++++++@@@@",
"####$$$$$$$$........++++++++@@@@@@@@@@@@@@@@........++++++++@@@@",
"####$$$$$$$$........++++++++@@@@@@@@@@@@@@@@........++++++++@@@@",
"####$$$$$$$$............++++++++++++++++............++++++++@@@@",
"####$$$$$$$$............++++++++++++++++............++++++++@@@@",
"####$$$$$$$$............++++++++++++++++............++++++++@@@@",
"####$$$$$$$$............++++++++++++++++............++++++++@@@@"};
