/* XPM */
static char * south_xpm[] = {
"64 64 4 1",
" 	c #FFFFFF",
".	c #000000",
"+	c #00FF00",
"@	c #0000FF",
"  ..  ..  ..  ..  ..  ..  ..  ..  ..  ..  ..  ..  ..  ..  ..  ..",
" +@+@+@+@+@+@+@. +@+@+@+@+@+@+ . .@+@+@+@+@+@+@. +@+@+@+@+@+@+@.",
".@+@+@+@+@+@+@+ .@+@+@+@+@+@+@  ..+@+@+@+@+@+@+ .@+@+@+@+@+@+@+ ",
".+@+@+@+@+@+@+@ .+@+@+@+@+@+@+. . @+@+@+@+@+@+@ .+@+@+@+@+@+@+@ ",
" @+@+@+@+@+@+@+. @+@+@+@+@+@+@..  +@+@+@+@+@+@+. @+@+@+@+@+@+@+.",
" +@+@+@+@+@+@+@. +@+@+@+@+@+@+ . .@+@+@+@+@+@+@. +@+@+@+@+@+@+@.",
".@+@+@+@+@+@+@+ .@+@+@+@+@+@+@  ..+@+@+@+@+@+@+ .@+@+@+@+@+@+@+ ",
".+@+@+@+@+@+@+@ .+@+@+@+@+@+@+. . @+@+@+@+@+@+@ .+@+@+@+@+@+@+@ ",
" @+@+@+@+@+@+@+. @+@+@+@+@+@+@..  +@+@+@+@+@+@+. @+@+@+@+@+@+@+.",
" +@+@+@+@+@+@+@. +@+@+@+@+@+@+ . .@+@+@+@+@+@+@. +@+@+@+@+@+@+@.",
".@+@+@+@+@+@+@+ .@+@+@+@+@+@+@  ..+@+@+@+@+@+@+ .@+@+@+@+@+@+@+ ",
".+@+@+@+@+@+@+@ .+@+@+@+@+@+@+. . @+@+@+@+@+@+@ .+@+@+@+@+@+@+@ ",
" @+@+@+@+@+@+@+. @+@+@+@+@+@+@..  +@+@+@+@+@+@+. @+@+@+@+@+@+@+.",
" +@+@+@+@+@+@+@. +@+@+@+@+@+@+ . .@+@+@+@+@+@+@. +@+@+@+@+@+@+@.",
".@+@+@+@+@+@+@+ .@+@+@+@+@+@+@  ..+@+@+@+@+@+@+ .@+@+@+@+@+@+@+ ",
"..  ..  ..  ..  ..  ..  ..  ... .   ..  ..  ..  ..  ..  ..  ..  ",
"  ..  ..  ..  ..  ..  ..  ..  ..  ..  ..  ..  ..  ..  ..  ..  ..",
" +@+@+@+@+@+@+@. +@+@+@+@+@+@+ . .@+@+@+@+@+@+@. +@+@+@+@+@+@+@.",
".@+@+@+@+@+@+@+ .@+@+@+@+@+@+@  ..+@+@+@+@+@+@+ .@+@+@+@+@+@+@+ ",
".+@+@+@+@+@+@+@ .+@+@+@+@+@+@+. . @+@+@+@+@+@+@ .+@+@+@+@+@+@+@ ",
" @+@+@+@+@+@+@+. @+@+@+@+@+@+@..  +@+@+@+@+@+@+. @+@+@+@+@+@+@+.",
" +@+@+@+@+@+@+@. +@+@+@+@+@+@+ . .@+@+@+@+@+@+@. +@+@+@+@+@+@+@.",
".@+@+@+@+@+@+@+ .@+@+@+@+@+@+@  ..+@+@+@+@+@+@+ .@+@+@+@+@+@+@+ ",
".+@+@+@+@+@+@+@ .+@+@+@+@+@+@+. . @+@+@+@+@+@+@ .+@+@+@+@+@+@+@ ",
" @+@+@+@+@+@+@+. @+@+@+@+@+@+@..  +@+@+@+@+@+@+. @+@+@+@+@+@+@+.",
" +@+@+@+@+@+@+@. +@+@+@+@+@+@+ . .@+@+@+@+@+@+@. +@+@+@+@+@+@+@.",
".@+@+@+@+@+@+@+ .@+@+@+@+@+@+@  ..+@+@+@+@+@+@+ .@+@+@+@+@+@+@+ ",
".+@+@+@+@+@+@+@ .+@+@+@+@+@+@+. . @+@+@+@+@+@+@ .+@+@+@+@+@+@+@ ",
" @+@+@+@+@+@+@+. @+@+@+@+@+@+@..  +@+@+@+@+@+@+. @+@+@+@+@+@+@+.",
" +@+@+@+@+@+@+@. +@+@+@+@+@+@+ . .@+@+@+@+@+@+@. +@+@+@+@+@+@+@.",
".  ..  ..  ..  ..  ..  ..  ..  @+..  ..  ..  ..  ..  ..  ..  .. ",
"..  ..  ..  ..  ..  ..  ..  ..@@++  ..  ..  ..  ..  ..  ..  ..  ",
"  ..  ..  ..  ..  ..  ..  ..  ++@@..  ..  ..  ..  ..  ..  ..  ..",
" ..  ..  ..  ..  ..  ..  ..  ..+@  ..  ..  ..  ..  ..  ..  ..  .",
".@+@+@+@+@+@+@+ .@+@+@+@+@+@+@. . +@+@+@+@+@+@+ .@+@+@+@+@+@+@+ ",
".+@+@+@+@+@+@+@ .+@+@+@+@+@+@+  ..@+@+@+@+@+@+@ .+@+@+@+@+@+@+@ ",
" @+@+@+@+@+@+@+. @+@+@+@+@+@+@ . .+@+@+@+@+@+@+. @+@+@+@+@+@+@+.",
" +@+@+@+@+@+@+@. +@+@+@+@+@+@+..  @+@+@+@+@+@+@. +@+@+@+@+@+@+@.",
".@+@+@+@+@+@+@+ .@+@+@+@+@+@+@. . +@+@+@+@+@+@+ .@+@+@+@+@+@+@+ ",
".+@+@+@+@+@+@+@ .+@+@+@+@+@+@+  ..@+@+@+@+@+@+@ .+@+@+@+@+@+@+@ ",
" @+@+@+@+@+@+@+. @+@+@+@+@+@+@ . .+@+@+@+@+@+@+. @+@+@+@+@+@+@+.",
" +@+@+@+@+@+@+@. +@+@+@+@+@+@+..  @+@+@+@+@+@+@. +@+@+@+@+@+@+@.",
".@+@+@+@+@+@+@+ .@+@+@+@+@+@+@. . +@+@+@+@+@+@+ .@+@+@+@+@+@+@+ ",
".+@+@+@+@+@+@+@ .+@+@+@+@+@+@+  ..@+@+@+@+@+@+@ .+@+@+@+@+@+@+@ ",
" @+@+@+@+@+@+@+. @+@+@+@+@+@+@ . .+@+@+@+@+@+@+. @+@+@+@+@+@+@+.",
" +@+@+@+@+@+@+@. +@+@+@+@+@+@+..  @+@+@+@+@+@+@. +@+@+@+@+@+@+@.",
".@+@+@+@+@+@+@+ .@+@+@+@+@+@+@. . +@+@+@+@+@+@+ .@+@+@+@+@+@+@+ ",
"..  ..  ..  ..  ..  ..  ..  ..  ..  ..  ..  ..  ..  ..  ..  ..  ",
"  ..  ..  ..  ..  ..  ..  ..   . ...  ..  ..  ..  ..  ..  ..  ..",
" +@+@+@+@+@+@+@. @+@+@+@+@+@+@..  @+@+@+@+@+@+@. +@+@+@+@+@+@+@.",
".@+@+@+@+@+@+@+ .+@+@+@+@+@+@+. . +@+@+@+@+@+@+ .@+@+@+@+@+@+@+ ",
".+@+@+@+@+@+@+@ .@+@+@+@+@+@+@  ..@+@+@+@+@+@+@ .+@+@+@+@+@+@+@ ",
" @+@+@+@+@+@+@+. +@+@+@+@+@+@+ . .+@+@+@+@+@+@+. @+@+@+@+@+@+@+.",
" +@+@+@+@+@+@+@. @+@+@+@+@+@+@..  @+@+@+@+@+@+@. +@+@+@+@+@+@+@.",
".@+@+@+@+@+@+@+ .+@+@+@+@+@+@+. . +@+@+@+@+@+@+ .@+@+@+@+@+@+@+ ",
".+@+@+@+@+@+@+@ .@+@+@+@+@+@+@  ..@+@+@+@+@+@+@ .+@+@+@+@+@+@+@ ",
" @+@+@+@+@+@+@+. +@+@+@+@+@+@+ . .+@+@+@+@+@+@+. @+@+@+@+@+@+@+.",
" +@+@+@+@+@+@+@. @+@+@+@+@+@+@..  @+@+@+@+@+@+@. +@+@+@+@+@+@+@.",
".@+@+@+@+@+@+@+ .+@+@+@+@+@+@+. . +@+@+@+@+@+@+ .@+@+@+@+@+@+@+ ",
".+@+@+@+@+@+@+@ .@+@+@+@+@+@+@  ..@+@+@+@+@+@+@ .+@+@+@+@+@+@+@ ",
" @+@+@+@+@+@+@+. +@+@+@+@+@+@+ . .+@+@+@+@+@+@+. @+@+@+@+@+@+@+.",
" +@+@+@+@+@+@+@. @+@+@+@+@+@+@..  @+@+@+@+@+@+@. +@+@+@+@+@+@+@.",
".@+@+@+@+@+@+@+ .+@+@+@+@+@+@+. . +@+@+@+@+@+@+ .@+@+@+@+@+@+@+ ",
"..  ..  ..  ..  ..  ..  ..  ..  ..  ..  ..  ..  ..  ..  ..  ..  "};
