/* XPM */
static char * default_east_xpm[] = {
"32 32 4 1",
" 	c #FFFFFF",
".	c #000000",
"+	c #FF0000",
"@	c #00FF00",
"  ..  ..  ..  ..  ..  ..  ..  ..",
" +@+@+@+@+@+@+@ .+@+@+@+@+@+@+@.",
".@+@+@+@+@+@+@+ .@+@+@+@+@+@+@+ ",
".+@+@+@+@+@+@+@. +@+@+@+@+@+@+@ ",
" @+@+@+@+@+@+@+. @+@+@+@+@+@+@+.",
" +@+@+@+@+@+@+@ .+@+@+@+@+@+@+@.",
".@+@+@+@+@+@+@+ .@+@+@+@+@+@+@+ ",
".+@+@+@+@+@+@+@. +@+@+@+@+@+@+@ ",
" @+@+@+@+@+@+@+. @+@+@+@+@+@+@+.",
" +@+@+@+@+@+@+@ .+@+@+@+@+@+@+@.",
".@+@+@+@+@+@+@+ .@+@+@+@+@+@+@+ ",
".+@+@+@+@+@+@+@. +@+@+@+@+@+@+@ ",
" @+@+@+@+@+@+@+. @+@+@+@+@+@+@+.",
" +@+@+@+@+@+@+@ .+@+@+@+@+@+@+@.",
".@+@+@+@+@+@+@+ .@+@+@+@+@+@+@+ ",
".  ..  ..  ..  . ..  ..  ..  .. ",
" ..  ..  ..  .. .  ..  ..  ..  .",
" +@+@+@+@+@+@+@. +@+@+@+@+@+@+@.",
".@+@+@+@+@+@+@+. @+@+@+@+@+@+@+ ",
".+@+@+@+@+@+@+@ .+@+@+@+@+@+@+@ ",
" @+@+@+@+@+@+@+ .@+@+@+@+@+@+@+.",
" +@+@+@+@+@+@+@. +@+@+@+@+@+@+@.",
".@+@+@+@+@+@+@+. @+@+@+@+@+@+@+ ",
".+@+@+@+@+@+@+@ .+@+@+@+@+@+@+@ ",
" @+@+@+@+@+@+@+ .@+@+@+@+@+@+@+.",
" +@+@+@+@+@+@+@. +@+@+@+@+@+@+@.",
".@+@+@+@+@+@+@+. @+@+@+@+@+@+@+ ",
".+@+@+@+@+@+@+@ .+@+@+@+@+@+@+@ ",
" @+@+@+@+@+@+@+ .@+@+@+@+@+@+@+.",
" +@+@+@+@+@+@+@. +@+@+@+@+@+@+@.",
".@+@+@+@+@+@+@+. @+@+@+@+@+@+@+ ",
"..  ..  ..  ..  ..  ..  ..  ..  "};
