/* XPM */
static char * flech_xpm[] = {
"64 64 4 1",
" 	c #FFFFFF",
".	c #000000",
"+	c #FF0000",
"@	c #DEDEDE",
"                          ......+........                       ",
"                           ......++.......                      ",
"                            ......++........                    ",
"                             .......+........                   ",
"                              .......+........                  ",
"                              ........++........                ",
"                              ..........+........               ",
"                              ...........+........              ",
"                              ............+.........            ",
"                                 ..........++...........        ",
"                                   ..........+..........        ",
"                                    ..........++.........       ",
"                                     ...........+........       ",
"                                      ...........+.......       ",
"                                       ...........++.......     ",
"                                        ............+.......    ",
"                                         ............+.......   ",
"                                           ...........++......  ",
"                                           .............+.......",
"                                             ............++.....",
"                                              ............+.....",
"                                               ............++...",
".......                                         .............++.",
"................                                 .............++",
".......................                           ..............",
"................................                   .............",
"++++++.......................................       ............",
"......+++++.....................................................",
"..........++++++++..............................................",
"..................+++++++++++...................................",
".............................+++++++++..........................",
"......................................+++++++++++++++...........",
"@@@@@................................................+++++++++++",
"@@@@   .........................................................",
"              ..................................................",
"                   ...........................................++",
"                          ...        ........................++.",
"                                                       ......+..",
"                                                       .....+...",
"                                                      .....+....",
"                                                     .....+.....",
"                                                    .....+......",
"                                                   ....++.......",
"                                                  ....+.........",
"                                                .....+..........",
"                                               .....+...........",
"                                             ......+............",
"                                           .......+.............",
"                                         ........+..............",
"                                      .........++...............",
"                                   ...........+................ ",
"                                  ...........+................  ",
"                                  ..........+................   ",
"                                 ...........+...............    ",
"                               ............+...............     ",
"                             ............++..............       ",
"                           .............+...............        ",
"                         ..............++.............          ",
"                       ...............+..............           ",
"                      ...............+.............             ",
"                     ...............+.............              ",
"                    ...............+............                ",
"                 .................+...........                  ",
"              ...................+..........                    "};
