/* XPM */
static char * flech_n_xpm[] = {
"64 64 4 1",
" 	c #FFFFFF",
".	c #FF0000",
"+	c #000000",
"@	c #DEDEDE",
" ..                       ++++++.++++++++                       ",
" ...      ...              ++++++..+++++++                      ",
" ....     ...               ++++++..++++++++                    ",
" .....    ...                +++++++.++++++++                   ",
" ......   ...                 +++++++.++++++++                  ",
" . ....   ...                 ++++++++..++++++++                ",
" . .....  ...                 ++++++++++.++++++++               ",
" . .....  ...                 +++++++++++.++++++++              ",
" . . .... ...                 ++++++++++++.+++++++++            ",
" . . . .. ...                    ++++++++++..+++++++++++        ",
" ... ........                      ++++++++++.++++++++++        ",
"  ..  . ....                        ++++++++++..+++++++++       ",
"  ..  . ....                         +++++++++++.++++++++       ",
"  ..  .. ...                          +++++++++++.+++++++       ",
"  ..   . ...                           +++++++++++..+++++++     ",
"  ..   .....                            ++++++++++++.+++++++    ",
"  ..    ....                             ++++++++++++.+++++++   ",
"   .    ...                                +++++++++++..++++++  ",
"   .     ..                                +++++++++++++.+++++++",
"         ..                                  ++++++++++++..+++++",
"          .                                   ++++++++++++.+++++",
"                                               ++++++++++++..+++",
"+++++++                                         +++++++++++++..+",
"++++++++++++++++                                 +++++++++++++..",
"+++++++++++++++++++++++                           ++++++++++++++",
"++++++++++++++++++++++++++++++++                   +++++++++++++",
"......+++++++++++++++++++++++++++++++++++++++       ++++++++++++",
"++++++.....+++++++++++++++++++++++++++++++++++++++++++++++++++++",
"++++++++++........++++++++++++++++++++++++++++++++++++++++++++++",
"++++++++++++++++++...........+++++++++++++++++++++++++++++++++++",
"+++++++++++++++++++++++++++++.........++++++++++++++++++++++++++",
"++++++++++++++++++++++++++++++++++++++...............+++++++++++",
"@@@@@++++++++++++++++++++++++++++++++++++++++++++++++...........",
"@@@@   +++++++++++++++++++++++++++++++++++++++++++++++++++++++++",
"              ++++++++++++++++++++++++++++++++++++++++++++++++++",
"                   +++++++++++++++++++++++++++++++++++++++++++..",
"                          +++        ++++++++++++++++++++++++..+",
"                                                       ++++++.++",
"                                                       +++++.+++",
"                                                      +++++.++++",
"                                                     +++++.+++++",
"                                                    +++++.++++++",
"                                                   ++++..+++++++",
"                                                  ++++.+++++++++",
"                                                +++++.++++++++++",
"                                               +++++.+++++++++++",
"                                             ++++++.++++++++++++",
"                                           +++++++.+++++++++++++",
"                                         ++++++++.++++++++++++++",
"                                      +++++++++..+++++++++++++++",
"        .                          +++++++++++.++++++++++++++++ ",
"                                  +++++++++++.++++++++++++++++  ",
"                                  ++++++++++.++++++++++++++++   ",
"                                 +++++++++++.+++++++++++++++    ",
"                               ++++++++++++.+++++++++++++++     ",
"                             ++++++++++++..++++++++++++++       ",
"                           +++++++++++++.+++++++++++++++        ",
"                         ++++++++++++++..+++++++++++++          ",
"                       +++++++++++++++.++++++++++++++           ",
"                      +++++++++++++++.+++++++++++++             ",
"                     +++++++++++++++.+++++++++++++              ",
"                    +++++++++++++++.++++++++++++                ",
"                 +++++++++++++++++.+++++++++++                  ",
"              +++++++++++++++++++.++++++++++                    "};
