/* XPM */
static char * wall_x8_xpm[] = {
"8 8 2 1",
" 	c #575757",
".	c #C0BFBF",
"        ",
"  ....  ",
" . .. . ",
" ..  .. ",
" ..  .. ",
" . .. . ",
"  ....  ",
"        "};
