/* XPM */
static char * wall_x16_xpm[] = {
"16 16 2 1",
" 	c #575757",
".	c #C0BFBF",
"                ",
"    ........    ",
"   ..........   ",
"  . ........ .  ",
" ... ...... ... ",
" .... .... .... ",
" ..... .. ..... ",
" ......  ...... ",
" ......  ...... ",
" ..... .. ..... ",
" .... .... .... ",
" ... ...... ... ",
"  . ........ .  ",
"   ..........   ",
"    ........    ",
"                "};
