/* XPM */
static char * door_x16_xpm[] = {
"16 16 3 1",
" 	c #734400",
".	c #AB6C1E",
"+	c #000000",
"                ",
"                ",
"  .. ..  .. ..  ",
"  .. ..  .. ..  ",
"  .. ..  .. ..  ",
"  .. ..  .. ..  ",
"  .. ..  .. .+  ",
"  .. ..  .. .+  ",
"  .. ..  .. .+  ",
"  .. ..  .. .+  ",
"  .. ..  .. ..  ",
"  .. ..  .. ..  ",
"  .. ..  .. ..  ",
"  .. ..  .. ..  ",
"                ",
"                "};
