/* XPM */
static char * door_open_x16_xpm[] = {
"16 16 15 1",
" 	c #714300",
".	c #623900",
"+	c #583300",
"@	c #4E2C00",
"#	c #452700",
"$	c #331B00",
"%	c #231100",
"&	c #A96A1D",
"*	c #935B18",
"=	c #855315",
"-	c #764911",
";	c #6A410E",
">	c #4F2F08",
",	c #A7681C",
"'	c #000000",
"    ..++@@##$$%%",
"    ..++@@##$$%%",
"  &&.*=+@-;#>>%%",
"  &&.*=+@-;#>>%%",
"  &,.*=+@-;#>>%%",
"  &&.*=+@-;#>>%%",
"  &&.*=+@-;#>'%%",
"  &&.*=+@-;#>'%%",
"  &&.*=+@-;#>'%%",
"  &&.*=+@-;#>'%%",
"  &&.*=+@-;#>>%%",
"  &&.*=+@-;#>>%%",
"  &&.*=+@-;#>>%%",
"  &&.*=+@-;#>>%%",
"    ..++@@##$$%%",
"    ..++@@##$$%%"};
