/* XPM */
static char * wall_x64_xpm[] = {
"64 64 12 1",
" 	c #575757",
".	c #565656",
"+	c #555555",
"@	c #636363",
"#	c #757575",
"$	c #7E7D7D",
"%	c #7E7E7E",
"&	c #9C9B9B",
"*	c #ACACAC",
"=	c #ADACAC",
"-	c #C0BFBF",
";	c #C1C0C0",
"                                                                ",
"   ..++++++++++++++++++++++++++++++++++++++++++++++++++++++..   ",
"                                                                ",
" . @#$%$$$$$$$$$$$$$$$$$$$$$$$$$$$$$$$$$$$$$$$$$$$$$$$$$$%$#@ . ",
" . #&*=**************************************************=*&# . ",
" + $*-;--------------------------------------------------;-*$ + ",
" + %=;;;;;;;;;;;;;;;;;;;;;;;;;;;;;;;;;;;;;;;;;;;;;;;;;;;;;;=% + ",
" + $*-;--------------------------------------------------;-*$ + ",
" + $*-;--------------------------------------------------;-*$ + ",
" + $*-;--------------------------------------------------;-*$ + ",
" + $*-;--------------------------------------------------;-*$ + ",
" + $*-;--------------------------------------------------;-*$ + ",
" + $*-;--------------------------------------------------;-*$ + ",
" + $*-;--------------------------------------------------;-*$ + ",
" + $*-;--------------------------------------------------;-*$ + ",
" + $*-;--------------------------------------------------;-*$ + ",
" + $*-;--------------------------------------------------;-*$ + ",
" + $*-;--------------------------------------------------;-*$ + ",
" + $*-;--------------------------------------------------;-*$ + ",
" + $*-;--------------------------------------------------;-*$ + ",
" + $*-;--------------------------------------------------;-*$ + ",
" + $*-;--------------------------------------------------;-*$ + ",
" + $*-;--------------------------------------------------;-*$ + ",
" + $*-;--------------------------------------------------;-*$ + ",
" + $*-;--------------------------------------------------;-*$ + ",
" + $*-;--------------------------------------------------;-*$ + ",
" + $*-;--------------------------------------------------;-*$ + ",
" + $*-;--------------------------------------------------;-*$ + ",
" + $*-;--------------------------------------------------;-*$ + ",
" + $*-;--------------------------------------------------;-*$ + ",
" + $*-;--------------------------------------------------;-*$ + ",
" + $*-;--------------------------------------------------;-*$ + ",
" + $*-;--------------------------------------------------;-*$ + ",
" + $*-;--------------------------------------------------;-*$ + ",
" + $*-;--------------------------------------------------;-*$ + ",
" + $*-;--------------------------------------------------;-*$ + ",
" + $*-;--------------------------------------------------;-*$ + ",
" + $*-;--------------------------------------------------;-*$ + ",
" + $*-;--------------------------------------------------;-*$ + ",
" + $*-;--------------------------------------------------;-*$ + ",
" + $*-;--------------------------------------------------;-*$ + ",
" + $*-;--------------------------------------------------;-*$ + ",
" + $*-;--------------------------------------------------;-*$ + ",
" + $*-;--------------------------------------------------;-*$ + ",
" + $*-;--------------------------------------------------;-*$ + ",
" + $*-;--------------------------------------------------;-*$ + ",
" + $*-;--------------------------------------------------;-*$ + ",
" + $*-;--------------------------------------------------;-*$ + ",
" + $*-;--------------------------------------------------;-*$ + ",
" + $*-;--------------------------------------------------;-*$ + ",
" + $*-;--------------------------------------------------;-*$ + ",
" + $*-;--------------------------------------------------;-*$ + ",
" + $*-;--------------------------------------------------;-*$ + ",
" + $*-;--------------------------------------------------;-*$ + ",
" + $*-;--------------------------------------------------;-*$ + ",
" + $*-;--------------------------------------------------;-*$ + ",
" + $*-;--------------------------------------------------;-*$ + ",
" + %=;;;;;;;;;;;;;;;;;;;;;;;;;;;;;;;;;;;;;;;;;;;;;;;;;;;;;;=% + ",
" + $*-;--------------------------------------------------;-*$ + ",
" . #&*=**************************************************=*&# . ",
" . @#$%$$$$$$$$$$$$$$$$$$$$$$$$$$$$$$$$$$$$$$$$$$$$$$$$$$%$#@ . ",
"                                                                ",
"   ..++++++++++++++++++++++++++++++++++++++++++++++++++++++..   ",
"                                                                "};
