/* XPM */
static char * default_64x64_west_xpm[] = {
"64 64 4 1",
" 	c #FFFFFF",
".	c #000000",
"+	c #0000FF",
"@	c #00FF00",
"    ....    ....    ....    ....    ....    ....    ....    ....",
"    ....    ....    ....    ....    ....    ....    ....    ....",
"  ++@@++@@++@@++@@++@@++@@++@@  ..++@@++@@++@@++@@++@@++@@++@@..",
"  ++@@++@@++@@++@@++@@++@@++@@  ..++@@++@@++@@++@@++@@++@@++@@..",
"..@@++@@++@@++@@++@@++@@++@@++  ..@@++@@++@@++@@++@@++@@++@@++  ",
"..@@++@@++@@++@@++@@++@@++@@++  ..@@++@@++@@++@@++@@++@@++@@++  ",
"..++@@++@@++@@++@@++@@++@@++@@..  ++@@++@@++@@++@@++@@++@@++@@  ",
"..++@@++@@++@@++@@++@@++@@++@@..  ++@@++@@++@@++@@++@@++@@++@@  ",
"  @@++@@++@@++@@++@@++@@++@@++..  @@++@@++@@++@@++@@++@@++@@++..",
"  @@++@@++@@++@@++@@++@@++@@++..  @@++@@++@@++@@++@@++@@++@@++..",
"  ++@@++@@++@@++@@++@@++@@++@@  ..++@@++@@++@@++@@++@@++@@++@@..",
"  ++@@++@@++@@++@@++@@++@@++@@  ..++@@++@@++@@++@@++@@++@@++@@..",
"..@@++@@++@@++@@++@@++@@++@@++  ..@@++@@++@@++@@++@@++@@++@@++  ",
"..@@++@@++@@++@@++@@++@@++@@++  ..@@++@@++@@++@@++@@++@@++@@++  ",
"..++@@++@@++@@++@@++@@++@@++@@..  ++@@++@@++@@++@@++@@++@@++@@  ",
"..++@@++@@++@@++@@++@@++@@++@@..  ++@@++@@++@@++@@++@@++@@++@@  ",
"  @@++@@++@@++@@++@@++@@++@@++..  @@++@@++@@++@@++@@++@@++@@++..",
"  @@++@@++@@++@@++@@++@@++@@++..  @@++@@++@@++@@++@@++@@++@@++..",
"  ++@@++@@++@@++@@++@@++@@++@@  ..++@@++@@++@@++@@++@@++@@++@@..",
"  ++@@++@@++@@++@@++@@++@@++@@  ..++@@++@@++@@++@@++@@++@@++@@..",
"..@@++@@++@@++@@++@@++@@++@@++  ..@@++@@++@@++@@++@@++@@++@@++  ",
"..@@++@@++@@++@@++@@++@@++@@++  ..@@++@@++@@++@@++@@++@@++@@++  ",
"..++@@++@@++@@++@@++@@++@@++@@..  ++@@++@@++@@++@@++@@++@@++@@  ",
"..++@@++@@++@@++@@++@@++@@++@@..  ++@@++@@++@@++@@++@@++@@++@@  ",
"  @@++@@++@@++@@++@@++@@++@@++..  @@++@@++@@++@@++@@++@@++@@++..",
"  @@++@@++@@++@@++@@++@@++@@++..  @@++@@++@@++@@++@@++@@++@@++..",
"  ++@@++@@++@@++@@++@@++@@++@@  ..++@@++@@++@@++@@++@@++@@++@@..",
"  ++@@++@@++@@++@@++@@++@@++@@  ..++@@++@@++@@++@@++@@++@@++@@..",
"..@@++@@++@@++@@++@@++@@++@@++  ..@@++@@++@@++@@++@@++@@++@@++  ",
"..@@++@@++@@++@@++@@++@@++@@++  ..@@++@@++@@++@@++@@++@@++@@++  ",
"..    ....    ....    ....    ..  ....    ....    ....    ....  ",
"..    ....    ....    ....    ..  ....    ....    ....    ....  ",
"  ....    ....    ....    ....  ..    ....    ....    ....    ..",
"  ....    ....    ....    ....  ..    ....    ....    ....    ..",
"  ++@@++@@++@@++@@++@@++@@++@@..  ++@@++@@++@@++@@++@@++@@++@@..",
"  ++@@++@@++@@++@@++@@++@@++@@..  ++@@++@@++@@++@@++@@++@@++@@..",
"..@@++@@++@@++@@++@@++@@++@@++..  @@++@@++@@++@@++@@++@@++@@++  ",
"..@@++@@++@@++@@++@@++@@++@@++..  @@++@@++@@++@@++@@++@@++@@++  ",
"..++@@++@@++@@++@@++@@++@@++@@  ..++@@++@@++@@++@@++@@++@@++@@  ",
"..++@@++@@++@@++@@++@@++@@++@@  ..++@@++@@++@@++@@++@@++@@++@@  ",
"  @@++@@++@@++@@++@@++@@++@@++  ..@@++@@++@@++@@++@@++@@++@@++..",
"  @@++@@++@@++@@++@@++@@++@@++  ..@@++@@++@@++@@++@@++@@++@@++..",
"  ++@@++@@++@@++@@++@@++@@++@@..  ++@@++@@++@@++@@++@@++@@++@@..",
"  ++@@++@@++@@++@@++@@++@@++@@..  ++@@++@@++@@++@@++@@++@@++@@..",
"..@@++@@++@@++@@++@@++@@++@@++..  @@++@@++@@++@@++@@++@@++@@++  ",
"..@@++@@++@@++@@++@@++@@++@@++..  @@++@@++@@++@@++@@++@@++@@++  ",
"..++@@++@@++@@++@@++@@++@@++@@  ..++@@++@@++@@++@@++@@++@@++@@  ",
"..++@@++@@++@@++@@++@@++@@++@@  ..++@@++@@++@@++@@++@@++@@++@@  ",
"  @@++@@++@@++@@++@@++@@++@@++  ..@@++@@++@@++@@++@@++@@++@@++..",
"  @@++@@++@@++@@++@@++@@++@@++  ..@@++@@++@@++@@++@@++@@++@@++..",
"  ++@@++@@++@@++@@++@@++@@++@@..  ++@@++@@++@@++@@++@@++@@++@@..",
"  ++@@++@@++@@++@@++@@++@@++@@..  ++@@++@@++@@++@@++@@++@@++@@..",
"..@@++@@++@@++@@++@@++@@++@@++..  @@++@@++@@++@@++@@++@@++@@++  ",
"..@@++@@++@@++@@++@@++@@++@@++..  @@++@@++@@++@@++@@++@@++@@++  ",
"..++@@++@@++@@++@@++@@++@@++@@  ..++@@++@@++@@++@@++@@++@@++@@  ",
"..++@@++@@++@@++@@++@@++@@++@@  ..++@@++@@++@@++@@++@@++@@++@@  ",
"  @@++@@++@@++@@++@@++@@++@@++  ..@@++@@++@@++@@++@@++@@++@@++..",
"  @@++@@++@@++@@++@@++@@++@@++  ..@@++@@++@@++@@++@@++@@++@@++..",
"  ++@@++@@++@@++@@++@@++@@++@@..  ++@@++@@++@@++@@++@@++@@++@@..",
"  ++@@++@@++@@++@@++@@++@@++@@..  ++@@++@@++@@++@@++@@++@@++@@..",
"..@@++@@++@@++@@++@@++@@++@@++..  @@++@@++@@++@@++@@++@@++@@++  ",
"..@@++@@++@@++@@++@@++@@++@@++..  @@++@@++@@++@@++@@++@@++@@++  ",
"....    ....    ....    ....    ....    ....    ....    ....    ",
"....    ....    ....    ....    ....    ....    ....    ....    "};
