/* XPM */
static char * default_64x64_south_xpm[] = {
"64 64 4 1",
" 	c #FFFFFF",
".	c #000000",
"+	c #0000FF",
"@	c #FF00FF",
"    ....    ....    ....    ....    ....    ....    ....    ....",
"    ....    ....    ....    ....    ....    ....    ....    ....",
"  ++@@++@@++@@++@@++@@++@@++@@  ..++@@++@@++@@++@@++@@++@@++@@..",
"  ++@@++@@++@@++@@++@@++@@++@@  ..++@@++@@++@@++@@++@@++@@++@@..",
"..@@++@@++@@++@@++@@++@@++@@++  ..@@++@@++@@++@@++@@++@@++@@++  ",
"..@@++@@++@@++@@++@@++@@++@@++  ..@@++@@++@@++@@++@@++@@++@@++  ",
"..++@@++@@++@@++@@++@@++@@++@@..  ++@@++@@++@@++@@++@@++@@++@@  ",
"..++@@++@@++@@++@@++@@++@@++@@..  ++@@++@@++@@++@@++@@++@@++@@  ",
"  @@++@@++@@++@@++@@++@@++@@++..  @@++@@++@@++@@++@@++@@++@@++..",
"  @@++@@++@@++@@++@@++@@++@@++..  @@++@@++@@++@@++@@++@@++@@++..",
"  ++@@++@@++@@++@@++@@++@@++@@  ..++@@++@@++@@++@@++@@++@@++@@..",
"  ++@@++@@++@@++@@++@@++@@++@@  ..++@@++@@++@@++@@++@@++@@++@@..",
"..@@++@@++@@++@@++@@++@@++@@++  ..@@++@@++@@++@@++@@++@@++@@++  ",
"..@@++@@++@@++@@++@@++@@++@@++  ..@@++@@++@@++@@++@@++@@++@@++  ",
"..++@@++@@++@@++@@++@@++@@++@@..  ++@@++@@++@@++@@++@@++@@++@@  ",
"..++@@++@@++@@++@@++@@++@@++@@..  ++@@++@@++@@++@@++@@++@@++@@  ",
"  @@++@@++@@++@@++@@++@@++@@++..  @@++@@++@@++@@++@@++@@++@@++..",
"  @@++@@++@@++@@++@@++@@++@@++..  @@++@@++@@++@@++@@++@@++@@++..",
"  ++@@++@@++@@++@@++@@++@@++@@  ..++@@++@@++@@++@@++@@++@@++@@..",
"  ++@@++@@++@@++@@++@@++@@++@@  ..++@@++@@++@@++@@++@@++@@++@@..",
"..@@++@@++@@++@@++@@++@@++@@++  ..@@++@@++@@++@@++@@++@@++@@++  ",
"..@@++@@++@@++@@++@@++@@++@@++  ..@@++@@++@@++@@++@@++@@++@@++  ",
"..++@@++@@++@@++@@++@@++@@++@@..  ++@@++@@++@@++@@++@@++@@++@@  ",
"..++@@++@@++@@++@@++@@++@@++@@..  ++@@++@@++@@++@@++@@++@@++@@  ",
"  @@++@@++@@++@@++@@++@@++@@++..  @@++@@++@@++@@++@@++@@++@@++..",
"  @@++@@++@@++@@++@@++@@++@@++..  @@++@@++@@++@@++@@++@@++@@++..",
"  ++@@++@@++@@++@@++@@++@@++@@  ..++@@++@@++@@++@@++@@++@@++@@..",
"  ++@@++@@++@@++@@++@@++@@++@@  ..++@@++@@++@@++@@++@@++@@++@@..",
"..@@++@@++@@++@@++@@++@@++@@++  ..@@++@@++@@++@@++@@++@@++@@++  ",
"..@@++@@++@@++@@++@@++@@++@@++  ..@@++@@++@@++@@++@@++@@++@@++  ",
"..    ....    ....    ....    ..  ....    ....    ....    ....  ",
"..    ....    ....    ....    ..  ....    ....    ....    ....  ",
"  ....    ....    ....    ....  ..    ....    ....    ....    ..",
"  ....    ....    ....    ....  ..    ....    ....    ....    ..",
"  ++@@++@@++@@++@@++@@++@@++@@..  ++@@++@@++@@++@@++@@++@@++@@..",
"  ++@@++@@++@@++@@++@@++@@++@@..  ++@@++@@++@@++@@++@@++@@++@@..",
"..@@++@@++@@++@@++@@++@@++@@++..  @@++@@++@@++@@++@@++@@++@@++  ",
"..@@++@@++@@++@@++@@++@@++@@++..  @@++@@++@@++@@++@@++@@++@@++  ",
"..++@@++@@++@@++@@++@@++@@++@@  ..++@@++@@++@@++@@++@@++@@++@@  ",
"..++@@++@@++@@++@@++@@++@@++@@  ..++@@++@@++@@++@@++@@++@@++@@  ",
"  @@++@@++@@++@@++@@++@@++@@++  ..@@++@@++@@++@@++@@++@@++@@++..",
"  @@++@@++@@++@@++@@++@@++@@++  ..@@++@@++@@++@@++@@++@@++@@++..",
"  ++@@++@@++@@++@@++@@++@@++@@..  ++@@++@@++@@++@@++@@++@@++@@..",
"  ++@@++@@++@@++@@++@@++@@++@@..  ++@@++@@++@@++@@++@@++@@++@@..",
"..@@++@@++@@++@@++@@++@@++@@++..  @@++@@++@@++@@++@@++@@++@@++  ",
"..@@++@@++@@++@@++@@++@@++@@++..  @@++@@++@@++@@++@@++@@++@@++  ",
"..++@@++@@++@@++@@++@@++@@++@@  ..++@@++@@++@@++@@++@@++@@++@@  ",
"..++@@++@@++@@++@@++@@++@@++@@  ..++@@++@@++@@++@@++@@++@@++@@  ",
"  @@++@@++@@++@@++@@++@@++@@++  ..@@++@@++@@++@@++@@++@@++@@++..",
"  @@++@@++@@++@@++@@++@@++@@++  ..@@++@@++@@++@@++@@++@@++@@++..",
"  ++@@++@@++@@++@@++@@++@@++@@..  ++@@++@@++@@++@@++@@++@@++@@..",
"  ++@@++@@++@@++@@++@@++@@++@@..  ++@@++@@++@@++@@++@@++@@++@@..",
"..@@++@@++@@++@@++@@++@@++@@++..  @@++@@++@@++@@++@@++@@++@@++  ",
"..@@++@@++@@++@@++@@++@@++@@++..  @@++@@++@@++@@++@@++@@++@@++  ",
"..++@@++@@++@@++@@++@@++@@++@@  ..++@@++@@++@@++@@++@@++@@++@@  ",
"..++@@++@@++@@++@@++@@++@@++@@  ..++@@++@@++@@++@@++@@++@@++@@  ",
"  @@++@@++@@++@@++@@++@@++@@++  ..@@++@@++@@++@@++@@++@@++@@++..",
"  @@++@@++@@++@@++@@++@@++@@++  ..@@++@@++@@++@@++@@++@@++@@++..",
"  ++@@++@@++@@++@@++@@++@@++@@..  ++@@++@@++@@++@@++@@++@@++@@..",
"  ++@@++@@++@@++@@++@@++@@++@@..  ++@@++@@++@@++@@++@@++@@++@@..",
"..@@++@@++@@++@@++@@++@@++@@++..  @@++@@++@@++@@++@@++@@++@@++  ",
"..@@++@@++@@++@@++@@++@@++@@++..  @@++@@++@@++@@++@@++@@++@@++  ",
"....    ....    ....    ....    ....    ....    ....    ....    ",
"....    ....    ....    ....    ....    ....    ....    ....    "};
