/* XPM */
static char * default_64x64_north_xpm[] = {
"64 64 4 1",
" 	c #FFFFFF",
".	c #000000",
"+	c #FF0000",
"@	c #FF00FF",
"    ....    ....    ....    ..  ..  ....    ....    ....    ....",
"    ....    ....    ....    ..  ..  ....    ....    ....    ....",
"  ++@@++@@++@@++@@++@@++@@++@@  ..++@@++@@++@@++@@++@@++@@++@@..",
"  ++@@++@@++@@++@@++@@++@@++@@  ..++@@++@@++@@++@@++@@++@@++@@..",
"..@@++@@++@@++@@++@@++@@++@@++  ..@@++@@++@@++@@++@@++@@++@@++  ",
"..@@++@@++@@++@@++@@++@@++@@++  ..@@++@@++@@++@@++@@++@@++@@++  ",
"..++@@++@@++@@++@@++@@++@@++@@..  ++@@++@@++@@++@@++@@++@@++@@  ",
"..++@@++@@++@@++@@++@@++@@++@@..  ++@@++@@++@@++@@++@@++@@++@@  ",
"  @@++@@++@@++@@++@@++@@++@@++..  @@++@@++@@++@@++@@++@@++@@++..",
"  @@++@@++@@++@@++@@++@@++@@++..  @@++@@++@@++@@++@@++@@++@@++..",
"  ++@@++@@++@@++@@++@@++@@++@@  ..++@@++@@++@@++@@++@@++@@++@@..",
"  ++@@++@@++@@++@@++@@++@@++@@  ..++@@++@@++@@++@@++@@++@@++@@..",
"..@@++@@++@@++@@++@@++@@++@@++  ..@@++@@++@@++@@++@@++@@++@@++  ",
"..@@++@@++@@++@@++@@++@@++@@++  ..@@++@@++@@++@@++@@++@@++@@++  ",
"..++@@++@@++@@++@@++@@++@@++@@..  ++@@++@@++@@++@@++@@++@@++@@  ",
"..++@@++@@++@@++@@++@@++@@++@@..  ++@@++@@++@@++@@++@@++@@++@@  ",
"  @@++@@++@@++@@++@@++@@++@@++..  @@++@@++@@++@@++@@++@@++@@++..",
"  @@++@@++@@++@@++@@++@@++@@++..  @@++@@++@@++@@++@@++@@++@@++..",
"  ++@@++@@++@@++@@++@@++@@++@@  ..++@@++@@++@@++@@++@@++@@++@@..",
"  ++@@++@@++@@++@@++@@++@@++@@  ..++@@++@@++@@++@@++@@++@@++@@..",
"..@@++@@++@@++@@++@@++@@++@@++  ..@@++@@++@@++@@++@@++@@++@@++  ",
"..@@++@@++@@++@@++@@++@@++@@++  ..@@++@@++@@++@@++@@++@@++@@++  ",
"..++@@++@@++@@++@@++@@++@@++@@..  ++@@++@@++@@++@@++@@++@@++@@  ",
"..++@@++@@++@@++@@++@@++@@++@@..  ++@@++@@++@@++@@++@@++@@++@@  ",
"  @@++@@++@@++@@++@@++@@++@@++..  @@++@@++@@++@@++@@++@@++@@++..",
"  @@++@@++@@++@@++@@++@@++@@++..  @@++@@++@@++@@++@@++@@++@@++..",
"  ++@@++@@++@@++@@++@@++@@++@@  ..++@@++@@++@@++@@++@@++@@++@@..",
"  ++@@++@@++@@++@@++@@++@@++@@  ..++@@++@@++@@++@@++@@++@@++@@..",
"..@@++@@++@@++@@++@@++@@++@@++  ..@@++@@++@@++@@++@@++@@++@@++  ",
"..@@++@@++@@++@@++@@++@@++@@++  ..@@++@@++@@++@@++@@++@@++@@++  ",
"..    ....    ....    ....    ..  ....    ....    ....    ....  ",
"..    ....    ....    ....    ..  ....    ....    ....    ....  ",
"  ....    ....    ....    ....  ..    ....    ....    ....    ..",
"  ....    ....    ....    ....  ..    ....    ....    ....    ..",
"  ++@@++@@++@@++@@++@@++@@++@@..  ++@@++@@++@@++@@++@@++@@++@@..",
"  ++@@++@@++@@++@@++@@++@@++@@..  ++@@++@@++@@++@@++@@++@@++@@..",
"..@@++@@++@@++@@++@@++@@++@@++..  @@++@@++@@++@@++@@++@@++@@++  ",
"..@@++@@++@@++@@++@@++@@++@@++..  @@++@@++@@++@@++@@++@@++@@++  ",
"..++@@++@@++@@++@@++@@++@@++@@  ..++@@++@@++@@++@@++@@++@@++@@  ",
"..++@@++@@++@@++@@++@@++@@++@@  ..++@@++@@++@@++@@++@@++@@++@@  ",
"  @@++@@++@@++@@++@@++@@++@@++  ..@@++@@++@@++@@++@@++@@++@@++..",
"  @@++@@++@@++@@++@@++@@++@@++  ..@@++@@++@@++@@++@@++@@++@@++..",
"  ++@@++@@++@@++@@++@@++@@++@@..  ++@@++@@++@@++@@++@@++@@++@@..",
"  ++@@++@@++@@++@@++@@++@@++@@..  ++@@++@@++@@++@@++@@++@@++@@..",
"..@@++@@++@@++@@++@@++@@++@@++..  @@++@@++@@++@@++@@++@@++@@++  ",
"..@@++@@++@@++@@++@@++@@++@@++..  @@++@@++@@++@@++@@++@@++@@++  ",
"..++@@++@@++@@++@@++@@++@@++@@  ..++@@++@@++@@++@@++@@++@@++@@  ",
"..++@@++@@++@@++@@++@@++@@++@@  ..++@@++@@++@@++@@++@@++@@++@@  ",
"  @@++@@++@@++@@++@@++@@++@@++  ..@@++@@++@@++@@++@@++@@++@@++..",
"  @@++@@++@@++@@++@@++@@++@@++  ..@@++@@++@@++@@++@@++@@++@@++..",
"  ++@@++@@++@@++@@++@@++@@++@@..  ++@@++@@++@@++@@++@@++@@++@@..",
"  ++@@++@@++@@++@@++@@++@@++@@..  ++@@++@@++@@++@@++@@++@@++@@..",
"..@@++@@++@@++@@++@@++@@++@@++..  @@++@@++@@++@@++@@++@@++@@++  ",
"..@@++@@++@@++@@++@@++@@++@@++..  @@++@@++@@++@@++@@++@@++@@++  ",
"..++@@++@@++@@++@@++@@++@@++@@  ..++@@++@@++@@++@@++@@++@@++@@  ",
"..++@@++@@++@@++@@++@@++@@++@@  ..++@@++@@++@@++@@++@@++@@++@@  ",
"  @@++@@++@@++@@++@@++@@++@@++  ..@@++@@++@@++@@++@@++@@++@@++..",
"  @@++@@++@@++@@++@@++@@++@@++  ..@@++@@++@@++@@++@@++@@++@@++..",
"  ++@@++@@++@@++@@++@@++@@++@@..  ++@@++@@++@@++@@++@@++@@++@@..",
"  ++@@++@@++@@++@@++@@++@@++@@..  ++@@++@@++@@++@@++@@++@@++@@..",
"..@@++@@++@@++@@++@@++@@++@@++..  @@++@@++@@++@@++@@++@@++@@++  ",
"..@@++@@++@@++@@++@@++@@++@@++..  @@++@@++@@++@@++@@++@@++@@++  ",
"....    ....    ....    ....    ....    ....    ....    ....    ",
"....    ....    ....    ....    ....    ....    ....    ....    "};
