/* XPM */
static char * wall2_xpm[] = {
"64 64 4 1",
" 	c #4A2222",
".	c #4E1B1B",
"+	c #2F0E0E",
"@	c #351C1C",
"                    ....................................        ",
"                    ....................................        ",
"                    ....................................        ",
"                    ....................................        ",
"                    ....................................        ",
"                    ....................................        ",
"                    ....................................        ",
"                    ....................................        ",
"++++++++++++++++@@@@@@@@@@@@@@@@@@@@@@@@@@@@@@@@++++++++++++++++",
"++++++++++++++++@@@@@@@@@@@@@@@@@@@@@@@@@@@@@@@@++++++++++++++++",
"++++++++++++++++@@@@@@@@@@@@@@@@@@@@@@@@@@@@@@@@++++++++++++++++",
"++++++++++++++++@@@@@@@@@@@@@@@@@@@@@@@@@@@@@@@@++++++++++++++++",
"++++++++++++++++@@@@@@@@@@@@@@@@@@@@@@@@@@@@@@@@++++++++++++++++",
"++++++++++++++++@@@@@@@@@@@@@@@@@@@@@@@@@@@@@@@@++++++++++++++++",
"++++++++++++++++@@@@@@@@@@@@@@@@@@@@@@@@@@@@@@@@++++++++++++++++",
"++++++++++++++++@@@@@@@@@@@@@@@@@@@@@@@@@@@@@@@@++++++++++++++++",
"............                                ....................",
"............                                ....................",
"............                                ....................",
"............                                ....................",
"............                                ....................",
"............                                ....................",
"............                                ....................",
"............                                ....................",
"@@@@@@@@@@@@@@@@@@@@++++++++++++++++++++++++++++++++@@@@@@@@@@@@",
"@@@@@@@@@@@@@@@@@@@@++++++++++++++++++++++++++++++++@@@@@@@@@@@@",
"@@@@@@@@@@@@@@@@@@@@++++++++++++++++++++++++++++++++@@@@@@@@@@@@",
"@@@@@@@@@@@@@@@@@@@@++++++++++++++++++++++++++++++++@@@@@@@@@@@@",
"@@@@@@@@@@@@@@@@@@@@++++++++++++++++++++++++++++++++@@@@@@@@@@@@",
"@@@@@@@@@@@@@@@@@@@@++++++++++++++++++++++++++++++++@@@@@@@@@@@@",
"@@@@@@@@@@@@@@@@@@@@++++++++++++++++++++++++++++++++@@@@@@@@@@@@",
"@@@@@@@@@@@@@@@@@@@@++++++++++++++++++++++++++++++++@@@@@@@@@@@@",
"    ....................................                        ",
"    ....................................                        ",
"    ....................................                        ",
"    ....................................                        ",
"    ....................................                        ",
"    ....................................                        ",
"    ....................................                        ",
"    ....................................                        ",
"++++++++++++@@@@@@@@@@@@@@@@@@@@@@@@@@@@@@@@++++++++++++++++++++",
"++++++++++++@@@@@@@@@@@@@@@@@@@@@@@@@@@@@@@@++++++++++++++++++++",
"++++++++++++@@@@@@@@@@@@@@@@@@@@@@@@@@@@@@@@++++++++++++++++++++",
"++++++++++++@@@@@@@@@@@@@@@@@@@@@@@@@@@@@@@@++++++++++++++++++++",
"++++++++++++@@@@@@@@@@@@@@@@@@@@@@@@@@@@@@@@++++++++++++++++++++",
"++++++++++++@@@@@@@@@@@@@@@@@@@@@@@@@@@@@@@@++++++++++++++++++++",
"++++++++++++@@@@@@@@@@@@@@@@@@@@@@@@@@@@@@@@++++++++++++++++++++",
"++++++++++++@@@@@@@@@@@@@@@@@@@@@@@@@@@@@@@@++++++++++++++++++++",
"                                ................................",
"                                ................................",
"                                ................................",
"                                ................................",
"                                ................................",
"                                ................................",
"                                ................................",
"                                ................................",
"@@@@@@@@@@@@@@@@@@@@++++++++++++++++++++++++++++++++@@@@@@@@@@@@",
"@@@@@@@@@@@@@@@@@@@@++++++++++++++++++++++++++++++++@@@@@@@@@@@@",
"@@@@@@@@@@@@@@@@@@@@++++++++++++++++++++++++++++++++@@@@@@@@@@@@",
"@@@@@@@@@@@@@@@@@@@@++++++++++++++++++++++++++++++++@@@@@@@@@@@@",
"@@@@@@@@@@@@@@@@@@@@++++++++++++++++++++++++++++++++@@@@@@@@@@@@",
"@@@@@@@@@@@@@@@@@@@@++++++++++++++++++++++++++++++++@@@@@@@@@@@@",
"@@@@@@@@@@@@@@@@@@@@++++++++++++++++++++++++++++++++@@@@@@@@@@@@",
"@@@@@@@@@@@@@@@@@@@@++++++++++++++++++++++++++++++++@@@@@@@@@@@@"};
